# xmcd CD database file
# Copyright (C) 1993-1998 Ti Kan
# 
# Track frame offsets:
#     225
#     14025
#     26692
#     40825
#     52410
#     64290
#     77552
#     91332
#     100062
#     112720
#     127507
#     139640
#     151667
#     162017
#     173895
#     183902
#     193875
#     205852
#     218247
#     232802
#     242870
#     254235
#     268040
#     279827
# 
# Disc length: 3854 seconds
# 
# Revision: 1
# Processed by: cddbd v1.4b41PL1 Copyright (c) Steve Scherf et al.
# Submitted via: DiscPlay 4.0.4
# 
DISCID=490f0b18
DTITLE=Various Country - Country Memories [CD1]
DYEAR=1900
DGENRE=
TTITLE0=Riders in the Sky
TTITLE1=Just a Little Loving
TTITLE2=Don't Fence Me In
TTITLE3=My Bucket's Got a Hole In It
TTITLE4=Mule Train
TTITLE5=Tennessee Waltz
TTITLE6=Pistol Packin' Mama
TTITLE7=New Pretty Blonde
TTITLE8=I'm So Lonesome ICould Cry
TTITLE9=Cow-Cow-Boogie
TTITLE10=Signed,Sealed and Delivered
TTITLE11=Cigarettes, Whusky and Wild, Wild Women
TTITLE12=Blue Suede Shoes
TTITLE13=Be-Bop-a-Lula
TTITLE14=More and More
TTITLE15=Honky Tonk Blues
TTITLE16=Secret Love
TTITLE17=The Shifting, Whispering Sands
TTITLE18=Peace In the Valley
TTITLE19=I Wanna Play House With You
TTITLE20=Here Comes Peter Cottontail
TTITLE21=Ramblin' Man
TTITLE22=Gambler's Guitar
TTITLE23=Don't Be Cruel
EXTD=
EXTT0=
EXTT1=
EXTT2=
EXTT3=
EXTT4=
EXTT5=
EXTT6=
EXTT7=
EXTT8=
EXTT9=
EXTT10=
EXTT11=
EXTT12=
EXTT13=
EXTT14=
EXTT15=
EXTT16=
EXTT17=
EXTT18=
EXTT19=
EXTT20=
EXTT21=
EXTT22=
EXTT23=
PLAYORDER=
